<?xml version="1.0" encoding="UTF-8"?>
<!DOCTYPE svg PUBLIC "-//W3C//DTD SVG 1.1//EN" "http://www.w3.org/Graphics/SVG/1.1/DTD/svg11.dtd">
<svg xmlns="http://www.w3.org/2000/svg" version="1.1" width="200px" height="200px" style="shape-rendering:geometricPrecision; text-rendering:geometricPrecision; image-rendering:optimizeQuality; fill-rule:evenodd; clip-rule:evenodd" xmlns:xlink="http://www.w3.org/1999/xlink">
<g><path style="opacity:0.952" fill="#7F56D9" d="M 23.5,2.5 C 73.5011,2.33334 123.501,2.50001 173.5,3C 183.098,3.93153 188.931,9.0982 191,18.5C 191.5,43.4978 191.667,68.4978 191.5,93.5C 184.593,92.5476 177.759,92.2142 171,92.5C 170.5,78.8374 170.333,65.1707 170.5,51.5C 122.167,51.5 73.8333,51.5 25.5,51.5C 25.5,84.8333 25.5,118.167 25.5,151.5C 43.8454,151.167 62.1788,151.5 80.5,152.5C 79.521,155.083 78.8543,157.749 78.5,160.5C 79.1938,164.609 80.1938,168.609 81.5,172.5C 60.4974,172.667 39.4974,172.5 18.5,172C 12.6351,170.489 8.46843,166.989 6,161.5C 4.35271,113.546 4.01938,65.5456 5,17.5C 7.82468,8.15852 13.9913,3.15852 23.5,2.5 Z M 30.5,21.5 C 35.1585,21.9906 38.1585,24.4906 39.5,29C 36.5516,36.1357 32.0516,37.3024 26,32.5C 24.3926,27.4383 25.8926,23.7716 30.5,21.5 Z M 53.5,21.5 C 62.2068,23.8279 63.5401,28.3279 57.5,35C 48.8438,36.1828 46.0105,32.6828 49,24.5C 50.4087,23.2189 51.9087,22.2189 53.5,21.5 Z M 75.5,21.5 C 81.6183,22.1184 84.1183,25.4517 83,31.5C 80.8387,35.1241 77.672,36.2907 73.5,35C 67.8541,29.4405 68.5208,24.9405 75.5,21.5 Z"/></g>
<g><path style="opacity:0.96" fill="#7F56D9" d="M 134.5,85.5 C 140.176,85.3339 145.843,85.5006 151.5,86C 153.049,87.214 154.215,88.714 155,90.5C 155.301,93.9801 156.135,97.3134 157.5,100.5C 162.46,102.647 167.127,105.314 171.5,108.5C 176.63,105.358 181.963,104.858 187.5,107C 190.504,111.175 192.837,115.675 194.5,120.5C 194.101,122.197 193.601,123.863 193,125.5C 189.87,127.628 187.037,130.128 184.5,133C 185.833,138 185.833,143 184.5,148C 187.037,150.872 189.87,153.372 193,155.5C 193.601,157.137 194.101,158.803 194.5,160.5C 192.96,164.584 191.127,168.584 189,172.5C 183.297,176.322 177.464,176.322 171.5,172.5C 167.127,175.686 162.46,178.353 157.5,180.5C 156.135,183.687 155.301,187.02 155,190.5C 154.215,192.286 153.049,193.786 151.5,195C 145.833,195.667 140.167,195.667 134.5,195C 132.951,193.786 131.785,192.286 131,190.5C 130.699,187.02 129.865,183.687 128.5,180.5C 123.54,178.353 118.873,175.686 114.5,172.5C 109.37,175.642 104.037,176.142 98.5,174C 95.496,169.825 93.1627,165.325 91.5,160.5C 92.0544,158.39 92.8877,156.39 94,154.5C 96.978,152.689 99.478,150.356 101.5,147.5C 100.167,142.833 100.167,138.167 101.5,133.5C 99.478,130.644 96.978,128.311 94,126.5C 92.8877,124.61 92.0544,122.61 91.5,120.5C 93.0401,116.416 94.8734,112.416 97,108.5C 102.703,104.678 108.536,104.678 114.5,108.5C 118.873,105.314 123.54,102.647 128.5,100.5C 129.865,97.3134 130.699,93.9801 131,90.5C 131.997,88.6769 133.164,87.0103 134.5,85.5 Z M 138.5,125.5 C 151.53,124.578 158.03,130.578 158,143.5C 154.111,154.472 146.611,157.972 135.5,154C 126.221,146.659 125.221,138.326 132.5,129C 134.432,127.541 136.432,126.375 138.5,125.5 Z"/></g>
</svg>
