<?xml version="1.0" encoding="UTF-8"?>
<!DOCTYPE svg PUBLIC "-//W3C//DTD SVG 1.1//EN" "http://www.w3.org/Graphics/SVG/1.1/DTD/svg11.dtd">
<svg xmlns="http://www.w3.org/2000/svg" version="1.1" width="512px" height="512px" style="shape-rendering:geometricPrecision; text-rendering:geometricPrecision; image-rendering:optimizeQuality; fill-rule:evenodd; clip-rule:evenodd" xmlns:xlink="http://www.w3.org/1999/xlink">
<g><path style="opacity:1" fill="#f4f4fb" d="M 187.5,89.5 C 152.329,89.1683 117.329,89.5016 82.5,90.5C 69.8608,95.2916 67.0275,103.625 74,115.5C 76.2513,117.377 78.7513,118.877 81.5,120C 117.165,120.5 152.832,120.667 188.5,120.5C 188.5,130.167 188.5,139.833 188.5,149.5C 153.329,149.168 118.329,149.502 83.5,150.5C 70.6316,154.245 67.1316,162.245 73,174.5C 75.4411,176.969 78.2744,178.802 81.5,180C 117.165,180.5 152.832,180.667 188.5,180.5C 188.5,190.5 188.5,200.5 188.5,210.5C 152.498,210.333 116.498,210.5 80.5,211C 70.1454,216.17 67.6454,224.003 73,234.5C 75.1005,237.467 77.9338,239.3 81.5,240C 117.165,240.5 152.832,240.667 188.5,240.5C 188.5,250.5 188.5,260.5 188.5,270.5C 152.832,270.333 117.165,270.5 81.5,271C 70.197,275.572 67.3636,283.405 73,294.5C 74.9384,297.106 77.4384,298.939 80.5,300C 116.498,300.5 152.498,300.667 188.5,300.5C 188.5,310.5 188.5,320.5 188.5,330.5C 152.832,330.333 117.165,330.5 81.5,331C 70.3976,335.723 67.5643,343.556 73,354.5C 75.7033,357.934 79.2033,359.934 83.5,360.5C 118.329,361.498 153.329,361.832 188.5,361.5C 188.5,371.167 188.5,380.833 188.5,390.5C 152.832,390.333 117.165,390.5 81.5,391C 70.3758,395.76 67.5425,403.593 73,414.5C 75.5096,417.665 78.6763,419.665 82.5,420.5C 117.329,421.498 152.329,421.832 187.5,421.5C 187.5,451.167 187.5,480.833 187.5,510.5C 129.166,510.667 70.8324,510.5 12.5,510C 6.43793,508.938 2.6046,505.438 1,499.5C 0.833333,418.167 0.666667,336.833 0.5,255.5C 0.337337,173.111 0.837337,90.7772 2,8.5C 4.69184,4.79925 8.19184,2.29925 12.5,1C 70.8324,0.500005 129.166,0.333339 187.5,0.5C 187.5,30.1667 187.5,59.8333 187.5,89.5 Z"/></g>
<g><path style="opacity:0.997" fill="#d9d9ec" d="M 188.5,-0.5 C 247.5,-0.5 306.5,-0.5 365.5,-0.5C 370.48,1.64848 373.98,5.31514 376,10.5C 376.5,87.1659 376.667,163.833 376.5,240.5C 376.167,240.5 375.833,240.5 375.5,240.5C 343.71,240.984 315.377,250.984 290.5,270.5C 256.5,270.5 222.5,270.5 188.5,270.5C 188.5,260.5 188.5,250.5 188.5,240.5C 223.671,240.832 258.671,240.498 293.5,239.5C 301.428,238.065 305.761,233.231 306.5,225C 305.386,217.885 301.386,213.218 294.5,211C 259.168,210.5 223.835,210.333 188.5,210.5C 188.5,200.5 188.5,190.5 188.5,180.5C 199.346,180.828 210.013,180.494 220.5,179.5C 229.834,177.183 234.001,171.183 233,161.5C 230.744,156.243 226.91,152.743 221.5,151C 210.505,150.5 199.505,150.333 188.5,150.5C 153.5,150.5 118.5,150.5 83.5,150.5C 118.329,149.502 153.329,149.168 188.5,149.5C 188.5,139.833 188.5,130.167 188.5,120.5C 223.671,120.832 258.671,120.498 293.5,119.5C 301.472,118.024 305.805,113.191 306.5,105C 305.441,98.1863 301.775,93.5196 295.5,91C 259.835,90.5 224.168,90.3333 188.5,90.5C 153.167,90.5 117.833,90.5 82.5,90.5C 117.329,89.5016 152.329,89.1683 187.5,89.5C 188.498,59.6713 188.831,29.6713 188.5,-0.5 Z"/></g>
<g><path style="opacity:0.809" fill="#ebeffa" d="M 9.5,-0.5 C 69.1667,-0.5 128.833,-0.5 188.5,-0.5C 188.831,29.6713 188.498,59.6713 187.5,89.5C 187.5,59.8333 187.5,30.1667 187.5,0.5C 129.166,0.333339 70.8324,0.500005 12.5,1C 8.19184,2.29925 4.69184,4.79925 2,8.5C 0.837337,90.7772 0.337337,173.111 0.5,255.5C 0.666667,336.833 0.833333,418.167 1,499.5C 2.6046,505.438 6.43793,508.938 12.5,510C 70.8324,510.5 129.166,510.667 187.5,510.5C 187.5,480.833 187.5,451.167 187.5,421.5C 188.498,451.329 188.831,481.329 188.5,511.5C 128.833,511.5 69.1667,511.5 9.5,511.5C 4.74828,509.083 1.41495,505.417 -0.5,500.5C -0.5,337.167 -0.5,173.833 -0.5,10.5C 1.41495,5.58321 4.74828,1.91654 9.5,-0.5 Z"/></g>
<g><path style="opacity:1" fill="#7F56D9" d="M 82.5,90.5 C 117.833,90.5 153.167,90.5 188.5,90.5C 188.5,100.167 188.5,109.833 188.5,119.5C 223.5,119.5 258.5,119.5 293.5,119.5C 258.671,120.498 223.671,120.832 188.5,120.5C 152.832,120.667 117.165,120.5 81.5,120C 78.7513,118.877 76.2513,117.377 74,115.5C 67.0275,103.625 69.8608,95.2916 82.5,90.5 Z"/></g>
<g><path style="opacity:1" fill="#7F56D9" d="M 188.5,90.5 C 224.168,90.3333 259.835,90.5 295.5,91C 301.775,93.5196 305.441,98.1863 306.5,105C 305.805,113.191 301.472,118.024 293.5,119.5C 258.5,119.5 223.5,119.5 188.5,119.5C 188.5,109.833 188.5,100.167 188.5,90.5 Z"/></g>
<g><path style="opacity:1" fill="#7F56D9" d="M 83.5,150.5 C 118.5,150.5 153.5,150.5 188.5,150.5C 188.5,160.167 188.5,169.833 188.5,179.5C 199.167,179.5 209.833,179.5 220.5,179.5C 210.013,180.494 199.346,180.828 188.5,180.5C 152.832,180.667 117.165,180.5 81.5,180C 78.2744,178.802 75.4411,176.969 73,174.5C 67.1316,162.245 70.6316,154.245 83.5,150.5 Z"/></g>
<g><path style="opacity:1" fill="#7F56D9" d="M 188.5,150.5 C 199.505,150.333 210.505,150.5 221.5,151C 226.91,152.743 230.744,156.243 233,161.5C 234.001,171.183 229.834,177.183 220.5,179.5C 209.833,179.5 199.167,179.5 188.5,179.5C 188.5,169.833 188.5,160.167 188.5,150.5 Z"/></g>
<g><path style="opacity:1" fill="#7F56D9" d="M 188.5,210.5 C 188.5,220.167 188.5,229.833 188.5,239.5C 223.5,239.5 258.5,239.5 293.5,239.5C 258.671,240.498 223.671,240.832 188.5,240.5C 152.832,240.667 117.165,240.5 81.5,240C 77.9338,239.3 75.1005,237.467 73,234.5C 67.6454,224.003 70.1454,216.17 80.5,211C 116.498,210.5 152.498,210.333 188.5,210.5 Z"/></g>
<g><path style="opacity:1" fill="#7F56D9" d="M 188.5,210.5 C 223.835,210.333 259.168,210.5 294.5,211C 301.386,213.218 305.386,217.885 306.5,225C 305.761,233.231 301.428,238.065 293.5,239.5C 258.5,239.5 223.5,239.5 188.5,239.5C 188.5,229.833 188.5,220.167 188.5,210.5 Z"/></g>
<g><path style="opacity:0.986" fill="#de0061" d="M 375.5,240.5 C 375.833,240.5 376.167,240.5 376.5,240.5C 431.469,242.344 471.969,267.344 498,315.5C 504.874,330.273 509.374,345.606 511.5,361.5C 511.5,371.167 511.5,380.833 511.5,390.5C 503.575,443.166 475.242,480.332 426.5,502C 413.705,506.616 400.705,509.783 387.5,511.5C 380.167,511.5 372.833,511.5 365.5,511.5C 365.5,511.167 365.5,510.833 365.5,510.5C 368.833,510.5 372.167,510.5 375.5,510.5C 375.5,500.833 375.5,491.167 375.5,481.5C 376.167,481.5 376.5,481.167 376.5,480.5C 428.176,477.651 462.01,451.651 478,402.5C 487.639,354.978 473.139,316.811 434.5,288C 416.76,276.898 397.427,271.065 376.5,270.5C 376.167,270.5 375.833,270.5 375.5,270.5C 375.5,260.5 375.5,250.5 375.5,240.5 Z"/></g>
<g><path style="opacity:1" fill="#fe3444" d="M 375.5,240.5 C 375.5,250.5 375.5,260.5 375.5,270.5C 330.741,272.956 298.574,294.289 279,334.5C 262.299,380.676 271.466,420.842 306.5,455C 324.038,470.1 344.372,478.6 367.5,480.5C 369.948,481.473 372.615,481.806 375.5,481.5C 375.5,491.167 375.5,500.833 375.5,510.5C 372.167,510.5 368.833,510.5 365.5,510.5C 308.499,503.825 269.499,473.825 248.5,420.5C 245.128,411.057 242.794,401.39 241.5,391.5C 241.5,391.167 241.5,390.833 241.5,390.5C 240.271,380.49 240.271,370.49 241.5,360.5C 242.709,350.666 244.709,340.999 247.5,331.5C 248.167,331.5 248.5,331.167 248.5,330.5C 252.446,319.942 257.446,309.942 263.5,300.5C 271.048,289.281 280.048,279.281 290.5,270.5C 315.377,250.984 343.71,240.984 375.5,240.5 Z"/></g>
<g><path style="opacity:1" fill="#ff6736" d="M 375.5,270.5 C 375.667,298.169 375.5,325.835 375,353.5C 364.471,342.637 353.637,332.137 342.5,322C 330.418,318.43 323.085,322.764 320.5,335C 320.726,338.012 321.559,340.845 323,343.5C 333.681,354.014 344.181,364.681 354.5,375.5C 343.484,386.682 332.651,398.015 322,409.5C 318.663,419.994 322.163,427.16 332.5,431C 336.402,431.738 340.068,431.072 343.5,429C 354.339,419.328 364.672,409.161 374.5,398.5C 375.498,425.662 375.831,452.995 375.5,480.5C 372.833,480.5 370.167,480.5 367.5,480.5C 344.372,478.6 324.038,470.1 306.5,455C 271.466,420.842 262.299,380.676 279,334.5C 298.574,294.289 330.741,272.956 375.5,270.5 Z"/></g>
<g><path style="opacity:1" fill="#fe3244" d="M 376.5,270.5 C 397.427,271.065 416.76,276.898 434.5,288C 473.139,316.811 487.639,354.978 478,402.5C 462.01,451.651 428.176,477.651 376.5,480.5C 376.5,452.833 376.5,425.167 376.5,397.5C 387.661,408.494 398.995,419.328 410.5,430C 422.516,432.998 429.516,428.331 431.5,416C 431.316,412.447 430.15,409.281 428,406.5C 417.652,396.319 407.486,385.986 397.5,375.5C 407.819,364.681 418.319,354.014 429,343.5C 433.488,334.643 431.655,327.477 423.5,322C 417.967,319.694 412.633,320.027 407.5,323C 397.298,333.369 386.965,343.535 376.5,353.5C 376.5,325.833 376.5,298.167 376.5,270.5 Z"/></g>
<g><path style="opacity:1" fill="#7F56D9" d="M 188.5,270.5 C 188.5,280.5 188.5,290.5 188.5,300.5C 152.498,300.667 116.498,300.5 80.5,300C 77.4384,298.939 74.9384,297.106 73,294.5C 67.3636,283.405 70.197,275.572 81.5,271C 117.165,270.5 152.832,270.333 188.5,270.5 Z"/></g>
<g><path style="opacity:1" fill="#7F56D9" d="M 188.5,270.5 C 222.5,270.5 256.5,270.5 290.5,270.5C 280.048,279.281 271.048,289.281 263.5,300.5C 238.5,300.5 213.5,300.5 188.5,300.5C 188.5,290.5 188.5,280.5 188.5,270.5 Z"/></g>
<g><path style="opacity:1" fill="#dad9ec" d="M 188.5,300.5 C 213.5,300.5 238.5,300.5 263.5,300.5C 257.446,309.942 252.446,319.942 248.5,330.5C 228.5,330.5 208.5,330.5 188.5,330.5C 188.5,320.5 188.5,310.5 188.5,300.5 Z"/></g>
<g><path style="opacity:1" fill="#ff3443" d="M 375.5,270.5 C 375.833,270.5 376.167,270.5 376.5,270.5C 376.5,298.167 376.5,325.833 376.5,353.5C 375.167,368.167 375.167,382.833 376.5,397.5C 375.508,397.328 374.842,397.662 374.5,398.5C 364.672,409.161 354.339,419.328 343.5,429C 340.068,431.072 336.402,431.738 332.5,431C 322.163,427.16 318.663,419.994 322,409.5C 332.651,398.015 343.484,386.682 354.5,375.5C 344.181,364.681 333.681,354.014 323,343.5C 321.559,340.845 320.726,338.012 320.5,335C 323.085,322.764 330.418,318.43 342.5,322C 353.637,332.137 364.471,342.637 375,353.5C 375.5,325.835 375.667,298.169 375.5,270.5 Z"/></g>
<g><path style="opacity:1" fill="#de0061" d="M 376.5,397.5 C 375.167,382.833 375.167,368.167 376.5,353.5C 386.965,343.535 397.298,333.369 407.5,323C 412.633,320.027 417.967,319.694 423.5,322C 431.655,327.477 433.488,334.643 429,343.5C 418.319,354.014 407.819,364.681 397.5,375.5C 407.486,385.986 417.652,396.319 428,406.5C 430.15,409.281 431.316,412.447 431.5,416C 429.516,428.331 422.516,432.998 410.5,430C 398.995,419.328 387.661,408.494 376.5,397.5 Z"/></g>
<g><path style="opacity:1" fill="#7F56D9" d="M 188.5,330.5 C 208.5,330.5 228.5,330.5 248.5,330.5C 248.5,331.167 248.167,331.5 247.5,331.5C 227.833,331.5 208.167,331.5 188.5,331.5C 188.5,341.167 188.5,350.833 188.5,360.5C 153.5,360.5 118.5,360.5 83.5,360.5C 79.2033,359.934 75.7033,357.934 73,354.5C 67.5643,343.556 70.3976,335.723 81.5,331C 117.165,330.5 152.832,330.333 188.5,330.5 Z"/></g>
<g><path style="opacity:1" fill="#7F56D9" d="M 247.5,331.5 C 244.709,340.999 242.709,350.666 241.5,360.5C 223.833,360.5 206.167,360.5 188.5,360.5C 188.5,350.833 188.5,341.167 188.5,331.5C 208.167,331.5 227.833,331.5 247.5,331.5 Z"/></g>
<g><path style="opacity:1" fill="#d9d9eb" d="M 83.5,360.5 C 118.5,360.5 153.5,360.5 188.5,360.5C 206.167,360.5 223.833,360.5 241.5,360.5C 240.271,370.49 240.271,380.49 241.5,390.5C 223.833,390.5 206.167,390.5 188.5,390.5C 188.5,380.833 188.5,371.167 188.5,361.5C 153.329,361.832 118.329,361.498 83.5,360.5 Z"/></g>
<g><path style="opacity:1" fill="#7F56D9" d="M 188.5,390.5 C 206.167,390.5 223.833,390.5 241.5,390.5C 241.5,390.833 241.5,391.167 241.5,391.5C 223.833,391.5 206.167,391.5 188.5,391.5C 188.5,401.167 188.5,410.833 188.5,420.5C 153.167,420.5 117.833,420.5 82.5,420.5C 78.6763,419.665 75.5096,417.665 73,414.5C 67.5425,403.593 70.3758,395.76 81.5,391C 117.165,390.5 152.832,390.333 188.5,390.5 Z"/></g>
<g><path style="opacity:1" fill="#7F56D9" d="M 241.5,391.5 C 242.794,401.39 245.128,411.057 248.5,420.5C 228.5,420.5 208.5,420.5 188.5,420.5C 188.5,410.833 188.5,401.167 188.5,391.5C 206.167,391.5 223.833,391.5 241.5,391.5 Z"/></g>
<g><path style="opacity:1" fill="#fe4d3d" d="M 374.5,398.5 C 374.842,397.662 375.508,397.328 376.5,397.5C 376.5,425.167 376.5,452.833 376.5,480.5C 376.5,481.167 376.167,481.5 375.5,481.5C 372.615,481.806 369.948,481.473 367.5,480.5C 370.167,480.5 372.833,480.5 375.5,480.5C 375.831,452.995 375.498,425.662 374.5,398.5 Z"/></g>
<g><path style="opacity:0.99" fill="#d9d8eb" d="M 82.5,420.5 C 117.833,420.5 153.167,420.5 188.5,420.5C 208.5,420.5 228.5,420.5 248.5,420.5C 269.499,473.825 308.499,503.825 365.5,510.5C 365.5,510.833 365.5,511.167 365.5,511.5C 306.5,511.5 247.5,511.5 188.5,511.5C 188.831,481.329 188.498,451.329 187.5,421.5C 152.329,421.832 117.329,421.498 82.5,420.5 Z"/></g>
</svg>
