<?xml version="1.0" encoding="UTF-8"?>
<!DOCTYPE svg PUBLIC "-//W3C//DTD SVG 1.1//EN" "http://www.w3.org/Graphics/SVG/1.1/DTD/svg11.dtd">
<svg xmlns="http://www.w3.org/2000/svg" version="1.1" width="800px" height="600px" style="shape-rendering:geometricPrecision; text-rendering:geometricPrecision; image-rendering:optimizeQuality; fill-rule:evenodd; clip-rule:evenodd" xmlns:xlink="http://www.w3.org/1999/xlink">
<g><path style="opacity:1" fill="#fefefe" d="M -0.5,-0.5 C 266.167,-0.5 532.833,-0.5 799.5,-0.5C 799.5,199.5 799.5,399.5 799.5,599.5C 532.833,599.5 266.167,599.5 -0.5,599.5C -0.5,399.5 -0.5,199.5 -0.5,-0.5 Z"/></g>
<g><path style="opacity:1" fill="#ffeaf2" d="M 599.5,45.5 C 553.997,45.1679 508.664,45.5012 463.5,46.5C 463.5,46.8333 463.5,47.1667 463.5,47.5C 458.756,47.543 454.756,49.2097 451.5,52.5C 450.833,52.5 450.5,52.8333 450.5,53.5C 448.187,55.3737 445.854,57.3737 443.5,59.5C 443.565,57.3043 444.232,55.3043 445.5,53.5C 450.663,50.3868 455.996,47.5535 461.5,45C 507.668,44.1685 553.668,44.3351 599.5,45.5 Z"/></g>
<g><path style="opacity:1" fill="#fec0cd" d="M 463.5,46.5 C 508.664,45.5012 553.997,45.1679 599.5,45.5C 603.842,45.2779 607.509,46.6112 610.5,49.5C 608.076,48.9695 605.743,48.1362 603.5,47C 556.835,46.5 510.168,46.3333 463.5,46.5 Z"/></g>
<g><path style="opacity:1" fill="#c75f71" d="M 463.5,47.5 C 463.5,47.1667 463.5,46.8333 463.5,46.5C 510.168,46.3333 556.835,46.5 603.5,47C 605.743,48.1362 608.076,48.9695 610.5,49.5C 612.869,50.69 614.869,52.3567 616.5,54.5C 610.955,52.0966 605.289,50.0966 599.5,48.5C 554.336,47.5012 509.003,47.1679 463.5,47.5 Z"/></g>
<g><path style="opacity:1" fill="#e56279" d="M 463.5,47.5 C 509.003,47.1679 554.336,47.5012 599.5,48.5C 553.165,48.3333 506.832,48.5 460.5,49C 457.673,50.6636 454.673,51.8303 451.5,52.5C 454.756,49.2097 458.756,47.543 463.5,47.5 Z"/></g>
<g><path style="opacity:1" fill="#b37e8d" d="M 630.5,45.5 C 628.186,47.4773 625.853,49.4773 623.5,51.5C 623.167,51.1667 622.833,50.8333 622.5,50.5C 623.857,48.8144 625.19,47.1477 626.5,45.5C 627.815,44.5244 629.148,43.5244 630.5,42.5C 631.562,43.4246 631.562,44.4246 630.5,45.5 Z"/></g>
<g><path style="opacity:1" fill="#f6576f" d="M 599.5,48.5 C 605.289,50.0966 610.955,52.0966 616.5,54.5C 617.496,54.4142 618.329,54.7476 619,55.5C 620.421,57.4048 621.588,59.4048 622.5,61.5C 623.752,64.9828 624.586,68.6495 625,72.5C 625.97,82.6557 622.97,91.3224 616,98.5C 615.517,99.448 615.351,100.448 615.5,101.5C 613.853,103.326 611.853,104.66 609.5,105.5C 600.894,106.841 592.227,107.674 583.5,108C 578.896,110.452 574.896,113.785 571.5,118C 570.207,118.49 568.873,118.657 567.5,118.5C 567.665,115.15 567.498,111.817 567,108.5C 566.5,108 566,107.5 565.5,107C 530.835,106.5 496.168,106.333 461.5,106.5C 461.167,106.5 460.833,106.5 460.5,106.5C 457.448,104.133 454.115,102.133 450.5,100.5C 447.049,96.0751 443.715,91.7417 440.5,87.5C 440.5,87.1667 440.5,86.8333 440.5,86.5C 440.334,80.8236 440.501,75.1569 441,69.5C 443.711,63.827 446.878,58.4937 450.5,53.5C 450.5,52.8333 450.833,52.5 451.5,52.5C 454.673,51.8303 457.673,50.6636 460.5,49C 506.832,48.5 553.165,48.3333 599.5,48.5 Z"/></g>
<g><path style="opacity:1" fill="#fdedf0" d="M 626.5,45.5 C 625.19,47.1477 623.857,48.8144 622.5,50.5C 622.833,50.8333 623.167,51.1667 623.5,51.5C 625.853,49.4773 628.186,47.4773 630.5,45.5C 630.5,46.8333 630.5,48.1667 630.5,49.5C 629.5,49.5 628.5,49.5 627.5,49.5C 627.5,50.8333 627.5,52.1667 627.5,53.5C 630.603,52.5834 633.603,52.4168 636.5,53C 638.192,54.4007 638.859,56.2341 638.5,58.5C 633.833,58.5 629.167,58.5 624.5,58.5C 625.366,61.2544 626.533,63.9211 628,66.5C 628.816,71.6842 628.65,76.6842 627.5,81.5C 627.666,77.4862 627.499,73.4862 627,69.5C 626.246,66.3156 624.746,63.6489 622.5,61.5C 621.588,59.4048 620.421,57.4048 619,55.5C 618.329,54.7476 617.496,54.4142 616.5,54.5C 614.869,52.3567 612.869,50.69 610.5,49.5C 612.167,49.5 613.833,49.5 615.5,49.5C 614.771,44.8696 614.437,40.2029 614.5,35.5C 616.5,35.5 618.5,35.5 620.5,35.5C 620.5,39.5 620.5,43.5 620.5,47.5C 622.5,46.8333 624.5,46.1667 626.5,45.5 Z"/></g>
<g><path style="opacity:1" fill="#aa7a88" d="M 616.5,36.5 C 617.794,38.0478 618.461,40.0478 618.5,42.5C 618.167,44.5 617.833,46.5 617.5,48.5C 616.509,44.5546 616.176,40.5546 616.5,36.5 Z"/></g>
<g><path style="opacity:1" fill="#d86678" d="M 493.5,59.5 C 478.579,56.0809 471.579,62.0809 472.5,77.5C 471.223,76.3064 470.556,74.6397 470.5,72.5C 470.667,70.8333 470.833,69.1667 471,67.5C 473.125,64.1099 475.625,60.9433 478.5,58C 482.711,56.4661 487.044,56.1327 491.5,57C 492.381,57.7083 493.047,58.5416 493.5,59.5 Z"/></g>
<g><path style="opacity:1" fill="#bc8491" d="M 625.5,55.5 C 629.555,55.1758 633.555,55.5091 637.5,56.5C 635.5,56.8333 633.5,57.1667 631.5,57.5C 629.048,57.4609 627.048,56.7943 625.5,55.5 Z"/></g>
<g><path style="opacity:1" fill="#fee1e7" d="M 493.5,59.5 C 499.674,66.0654 501.174,73.732 498,82.5C 492.897,88.1461 486.73,89.8128 479.5,87.5C 476.183,84.8699 473.85,81.5365 472.5,77.5C 471.579,62.0809 478.579,56.0809 493.5,59.5 Z"/></g>
<g><path style="opacity:1" fill="#d86b7f" d="M 450.5,53.5 C 446.878,58.4937 443.711,63.827 441,69.5C 440.501,75.1569 440.334,80.8236 440.5,86.5C 437.314,77.4295 438.314,68.7628 443.5,60.5C 443.5,60.1667 443.5,59.8333 443.5,59.5C 445.854,57.3737 448.187,55.3737 450.5,53.5 Z"/></g>
<g><path style="opacity:1" fill="#db6c7d" d="M 565.5,67.5 C 566.434,68.5676 566.768,69.901 566.5,71.5C 564.25,71.1814 562.25,71.6814 560.5,73C 562.192,74.3073 563.525,75.8073 564.5,77.5C 561.186,77.0261 558.853,75.3594 557.5,72.5C 557.608,71.5581 557.941,70.7247 558.5,70C 561.361,70.0302 563.695,69.1969 565.5,67.5 Z"/></g>
<g><path style="opacity:1" fill="#da677b" d="M 622.5,61.5 C 624.746,63.6489 626.246,66.3156 627,69.5C 627.499,73.4862 627.666,77.4862 627.5,81.5C 626.175,88.139 623.508,94.139 619.5,99.5C 618.395,100.6 617.062,101.267 615.5,101.5C 615.351,100.448 615.517,99.448 616,98.5C 622.97,91.3224 625.97,82.6557 625,72.5C 624.586,68.6495 623.752,64.9828 622.5,61.5 Z"/></g>
<g><path style="opacity:1" fill="#d66a7a" d="M 493.5,66.5 C 497.263,74.0388 495.597,80.2055 488.5,85C 482.662,85.8632 478.829,83.3632 477,77.5C 475.642,72.0066 476.809,67.1733 480.5,63C 484.167,61 487.833,61 491.5,63C 492.823,63.8159 493.489,64.9826 493.5,66.5 Z"/></g>
<g><path style="opacity:1" fill="#f65870" d="M 493.5,66.5 C 493.968,71.3697 493.302,76.0364 491.5,80.5C 486.032,84.9557 481.866,83.9557 479,77.5C 477.237,64.7453 482.07,61.0787 493.5,66.5 Z"/></g>
<g><path style="opacity:1" fill="#fedce2" d="M 565.5,67.5 C 563.695,69.1969 561.361,70.0302 558.5,70C 557.941,70.7247 557.608,71.5581 557.5,72.5C 558.853,75.3594 561.186,77.0261 564.5,77.5C 567.112,80.6693 567.112,83.8359 564.5,87C 560.961,88.5039 557.295,88.8372 553.5,88C 553.043,87.586 552.709,87.086 552.5,86.5C 555.447,85.6786 558.447,85.1786 561.5,85C 562.059,84.2753 562.392,83.4419 562.5,82.5C 559.838,80.0683 557.005,77.7349 554,75.5C 553.401,66.9618 557.235,64.2952 565.5,67.5 Z"/></g>
<g><path style="opacity:1" fill="#df6578" d="M 493.5,59.5 C 498.074,61.3192 500.741,64.6526 501.5,69.5C 503.685,69.2964 505.685,68.6298 507.5,67.5C 508.058,66.2101 509.058,65.3768 510.5,65C 514.222,64.7618 517.889,64.2618 521.5,63.5C 523.086,65.1727 523.753,67.1727 523.5,69.5C 525.959,69.69 527.626,68.69 528.5,66.5C 535.028,64.5263 541.694,64.3596 548.5,66C 549.09,67.2989 550.09,68.1322 551.5,68.5C 553.592,67.2572 555.592,65.7572 557.5,64C 559.833,63.3333 562.167,63.3333 564.5,64C 565.337,65.0113 565.67,66.1779 565.5,67.5C 557.235,64.2952 553.401,66.9618 554,75.5C 557.005,77.7349 559.838,80.0683 562.5,82.5C 562.392,83.4419 562.059,84.2753 561.5,85C 558.447,85.1786 555.447,85.6786 552.5,86.5C 552.709,87.086 553.043,87.586 553.5,88C 557.295,88.8372 560.961,88.5039 564.5,87C 567.112,83.8359 567.112,80.6693 564.5,77.5C 567.297,77.9666 568.631,79.6333 568.5,82.5C 570.735,82.2053 572.735,82.5386 574.5,83.5C 576.816,82.8401 579.149,82.1734 581.5,81.5C 585.137,82.1758 588.804,82.3425 592.5,82C 595.617,83.7195 596.283,86.2195 594.5,89.5C 591.597,90.9044 588.93,90.571 586.5,88.5C 584.817,89.5921 582.984,90.2587 581,90.5C 578.178,89.2704 575.345,89.2704 572.5,90.5C 570.015,90.2042 568.348,88.8708 567.5,86.5C 561.05,91.7043 554.883,91.7043 549,86.5C 547.067,87.8825 545.234,89.3825 543.5,91C 541.19,91.4966 538.857,91.6633 536.5,91.5C 535.862,98.3362 532.696,100.003 527,96.5C 526.825,92.789 526.325,89.1224 525.5,85.5C 523.475,87.1964 521.475,88.863 519.5,90.5C 514.863,91.2199 510.197,91.7199 505.5,92C 504.975,92.6924 504.308,93.1924 503.5,93.5C 503.478,91.0984 503.311,88.4318 503,85.5C 502.612,84.572 501.945,83.9054 501,83.5C 497.569,85.261 494.403,87.4276 491.5,90C 488.167,90.6667 484.833,90.6667 481.5,90C 480.244,89.5831 479.577,88.7498 479.5,87.5C 486.73,89.8128 492.897,88.1461 498,82.5C 501.174,73.732 499.674,66.0654 493.5,59.5 Z"/></g>
<g><path style="opacity:1" fill="#fedfe3" d="M 507.5,67.5 C 519.973,64.8053 525.14,69.8053 523,82.5C 519.723,88.1088 514.89,89.9422 508.5,88C 502.228,81.4468 501.894,74.6134 507.5,67.5 Z"/></g>
<g><path style="opacity:1" fill="#fed2dc" d="M 588.5,83.5 C 590.167,83.5 591.833,83.5 593.5,83.5C 594.167,87.5 592.5,89.1667 588.5,88.5C 588.5,86.8333 588.5,85.1667 588.5,83.5 Z"/></g>
<g><path style="opacity:1" fill="#d5677b" d="M 518.5,81.5 C 520.365,73.5344 517.532,70.5344 510,72.5C 509.01,76.444 509.51,80.1106 511.5,83.5C 513.045,84.4519 514.712,84.7852 516.5,84.5C 510.514,86.5473 507.514,84.214 507.5,77.5C 508.452,69.042 512.285,67.3753 519,72.5C 519.805,75.6965 519.638,78.6965 518.5,81.5 Z"/></g>
<g><path style="opacity:1" fill="#ee5a74" d="M 518.5,81.5 C 518.573,83.0269 517.906,84.0269 516.5,84.5C 514.712,84.7852 513.045,84.4519 511.5,83.5C 509.51,80.1106 509.01,76.444 510,72.5C 517.532,70.5344 520.365,73.5344 518.5,81.5 Z"/></g>
<g><path style="opacity:1" fill="#fee2e7" d="M 532.5,96.5 C 531.5,96.5 530.5,96.5 529.5,96.5C 529.5,86.8333 529.5,77.1667 529.5,67.5C 530.5,67.5 531.5,67.5 532.5,67.5C 532.369,68.2389 532.536,68.9056 533,69.5C 542.154,63.994 547.654,66.494 549.5,77C 548.559,87.6358 543.226,90.8024 533.5,86.5C 532.513,89.7683 532.18,93.1016 532.5,96.5 Z"/></g>
<g><path style="opacity:1" fill="#ed5a75" d="M 544.5,81.5 C 543.833,82.8333 542.833,83.8333 541.5,84.5C 539.533,84.7394 537.699,84.4061 536,83.5C 533.84,79.4807 534.006,75.6473 536.5,72C 543.16,71.5061 545.826,74.6728 544.5,81.5 Z"/></g>
<g><path style="opacity:1" fill="#feafbc" d="M 528.5,66.5 C 530.099,66.2322 531.432,66.5655 532.5,67.5C 531.5,67.5 530.5,67.5 529.5,67.5C 529.5,77.1667 529.5,86.8333 529.5,96.5C 530.5,96.5 531.5,96.5 532.5,96.5C 531.432,97.4345 530.099,97.7678 528.5,97.5C 528.5,87.1667 528.5,76.8333 528.5,66.5 Z"/></g>
<g><path style="opacity:1" fill="#d57a88" d="M 544.5,81.5 C 545.826,74.6728 543.16,71.5061 536.5,72C 534.006,75.6473 533.84,79.4807 536,83.5C 537.699,84.4061 539.533,84.7394 541.5,84.5C 538.857,85.9791 536.357,85.6458 534,83.5C 530.056,74.9886 532.556,70.4886 541.5,70C 545.448,73.1563 546.448,76.9896 544.5,81.5 Z"/></g>
<g><path style="opacity:1" fill="#feeaf1" d="M 443.5,60.5 C 438.314,68.7628 437.314,77.4295 440.5,86.5C 440.5,86.8333 440.5,87.1667 440.5,87.5C 441.167,89.5 441.833,91.5 442.5,93.5C 439.604,92.602 437.271,90.9353 435.5,88.5C 436.182,82.8511 436.682,76.8511 437,70.5C 438.206,67.4883 439.54,64.4883 441,61.5C 441.671,60.7476 442.504,60.4142 443.5,60.5 Z"/></g>
<g><path style="opacity:1" fill="#ffdbe6" d="M 574.5,83.5 C 576.268,87.4109 574.935,89.0776 570.5,88.5C 570.5,86.8333 570.5,85.1667 570.5,83.5C 571.833,83.5 573.167,83.5 574.5,83.5 Z"/></g>
<g><path style="opacity:1" fill="#ffddeb" d="M 579.5,83.5 C 583.676,82.8307 585.009,84.3307 583.5,88C 582.207,88.49 580.873,88.6567 579.5,88.5C 579.5,86.8333 579.5,85.1667 579.5,83.5 Z"/></g>
<g><path style="opacity:1" fill="#d5687b" d="M 440.5,87.5 C 443.715,91.7417 447.049,96.0751 450.5,100.5C 454.115,102.133 457.448,104.133 460.5,106.5C 459.5,106.5 458.5,106.5 457.5,106.5C 452.029,103.776 447.362,100.109 443.5,95.5C 443.672,94.5084 443.338,93.8417 442.5,93.5C 441.833,91.5 441.167,89.5 440.5,87.5 Z"/></g>
<g><path style="opacity:1" fill="#f7fbfd" d="M 435.5,88.5 C 437.271,90.9353 439.604,92.602 442.5,93.5C 443.338,93.8417 443.672,94.5084 443.5,95.5C 445.056,98.7363 447.056,101.736 449.5,104.5C 452.699,106.864 456.032,109.03 459.5,111C 490.542,111.174 521.542,111.674 552.5,112.5C 554.648,112.299 556.814,111.966 559,111.5C 559.772,111.645 560.439,111.978 561,112.5C 561.333,115.833 561.667,119.167 562,122.5C 562.671,123.252 563.504,123.586 564.5,123.5C 564.5,124.167 564.833,124.5 565.5,124.5C 565.56,125.043 565.893,125.376 566.5,125.5C 568.851,123.771 571.518,123.104 574.5,123.5C 577.055,125.029 579.721,126.529 582.5,128C 583.337,129.011 583.67,130.178 583.5,131.5C 585.929,131.884 588.263,132.551 590.5,133.5C 590.858,137.509 591.358,141.509 592,145.5C 593.44,147.046 595.273,147.879 597.5,148C 598.126,148.75 598.626,149.584 599,150.5C 599.169,156.859 599.669,163.193 600.5,169.5C 602.071,170.309 603.738,170.643 605.5,170.5C 605.351,169.448 605.517,168.448 606,167.5C 606.333,167.833 606.667,168.167 607,168.5C 607.5,175.826 607.666,183.159 607.5,190.5C 609.5,190.5 611.5,190.5 613.5,190.5C 614.474,197.455 615.807,204.289 617.5,211C 616.424,212.726 616.257,214.559 617,216.5C 617.701,218.762 618.868,219.762 620.5,219.5C 619.943,221.235 619.61,222.902 619.5,224.5C 621.069,228.035 622.735,231.535 624.5,235C 623.565,237.381 623.232,239.881 623.5,242.5C 626.167,242.833 628.833,243.167 631.5,243.5C 631.5,244.833 631.5,246.167 631.5,247.5C 626.167,247.833 626.167,248.167 631.5,248.5C 631.917,252.068 632.584,255.568 633.5,259C 633.456,260.764 633.122,262.431 632.5,264C 634.219,265.87 635.219,268.037 635.5,270.5C 636.873,270.343 638.207,270.51 639.5,271C 639.167,271.333 638.833,271.667 638.5,272C 639.696,277.156 641.696,281.99 644.5,286.5C 645.325,287.386 646.325,287.719 647.5,287.5C 647.5,288.833 647.5,290.167 647.5,291.5C 648.833,291.5 650.167,291.5 651.5,291.5C 651.5,292.5 651.5,293.5 651.5,294.5C 652.833,294.5 654.167,294.5 655.5,294.5C 655.29,299.295 657.624,301.962 662.5,302.5C 660.664,303.796 658.664,304.63 656.5,305C 660.524,306.574 665.191,307.574 670.5,308C 670.167,308.333 669.833,308.667 669.5,309C 670.823,309.816 671.489,310.983 671.5,312.5C 665.333,308.97 658.667,307.47 651.5,308C 647.664,309.75 643.998,311.75 640.5,314C 639.74,315.441 639.074,316.941 638.5,318.5C 637.675,319.386 636.675,319.719 635.5,319.5C 634.579,323.462 633.579,327.462 632.5,331.5C 632.63,333.375 632.963,335.208 633.5,337C 633.095,337.945 632.428,338.612 631.5,339C 633.65,340.411 635.984,341.245 638.5,341.5C 639.242,347.49 639.409,353.49 639,359.5C 637.989,360.337 636.822,360.67 635.5,360.5C 635.773,362.451 635.107,363.951 633.5,365C 630.571,365.777 627.737,365.61 625,364.5C 622.125,359.056 619.958,353.222 618.5,347C 619.287,344.901 619.62,342.734 619.5,340.5C 618.127,340.657 616.793,340.49 615.5,340C 613.26,337.913 610.927,336.079 608.5,334.5C 605.088,335.041 601.422,335.707 597.5,336.5C 596.557,281.175 596.223,225.842 596.5,170.5C 595.5,170.5 594.5,170.5 593.5,170.5C 593.631,169.761 593.464,169.094 593,168.5C 591.417,168.493 589.751,168.826 588,169.5C 587.667,168.833 587.333,168.167 587,167.5C 586.311,168.357 585.478,169.023 584.5,169.5C 573.205,168.909 561.872,168.243 550.5,167.5C 551.447,165.941 552.113,164.274 552.5,162.5C 551.435,159.074 550.768,155.574 550.5,152C 550.538,142.487 550.872,132.987 551.5,123.5C 549.851,122.352 548.351,121.019 547,119.5C 484.167,120.832 421.333,120.832 358.5,119.5C 359.919,118.549 361.585,118.216 363.5,118.5C 364.167,116.5 364.833,114.5 365.5,112.5C 366.873,112.657 368.207,112.49 369.5,112C 368.663,110.989 368.33,109.822 368.5,108.5C 372.65,108.599 376.15,107.265 379,104.5C 379.495,106.473 379.662,108.473 379.5,110.5C 380.833,110.5 382.167,110.5 383.5,110.5C 383.737,107.788 383.737,105.288 383.5,103C 386.157,102.825 388.824,102.992 391.5,103.5C 391.167,100.5 392.5,99.1667 395.5,99.5C 395.147,97.3652 395.98,96.0319 398,95.5C 408.869,95.0326 420.036,95.0326 431.5,95.5C 431.238,96.9778 431.571,98.3112 432.5,99.5C 433.318,97.8917 433.985,96.2251 434.5,94.5C 433.014,92.6984 432.014,90.6984 431.5,88.5C 432.833,88.5 434.167,88.5 435.5,88.5 Z"/></g>
<g><path style="opacity:1" fill="#dd6074" d="M 609.5,105.5 C 607.981,106.41 606.315,107.243 604.5,108C 597.833,108.333 591.167,108.667 584.5,109C 580.292,112.713 575.959,116.213 571.5,119.5C 569.565,120.15 567.565,120.483 565.5,120.5C 565.5,116.5 565.5,112.5 565.5,108.5C 531.832,108.667 498.165,108.5 464.5,108C 463.263,107.768 462.263,107.268 461.5,106.5C 496.168,106.333 530.835,106.5 565.5,107C 566,107.5 566.5,108 567,108.5C 567.498,111.817 567.665,115.15 567.5,118.5C 568.873,118.657 570.207,118.49 571.5,118C 574.896,113.785 578.896,110.452 583.5,108C 592.227,107.674 600.894,106.841 609.5,105.5 Z"/></g>
<g><path style="opacity:1" fill="#f0a4b0" d="M 457.5,106.5 C 458.5,106.5 459.5,106.5 460.5,106.5C 460.833,106.5 461.167,106.5 461.5,106.5C 462.263,107.268 463.263,107.768 464.5,108C 498.165,108.5 531.832,108.667 565.5,108.5C 565.5,112.5 565.5,116.5 565.5,120.5C 567.565,120.483 569.565,120.15 571.5,119.5C 569.54,121.156 567.54,122.823 565.5,124.5C 564.833,124.5 564.5,124.167 564.5,123.5C 564.5,118.833 564.5,114.167 564.5,109.5C 530.832,109.667 497.165,109.5 463.5,109C 461.277,108.434 459.277,107.6 457.5,106.5 Z"/></g>
<g><path style="opacity:1" fill="#feeff6" d="M 443.5,95.5 C 447.362,100.109 452.029,103.776 457.5,106.5C 459.277,107.6 461.277,108.434 463.5,109C 497.165,109.5 530.832,109.667 564.5,109.5C 564.5,114.167 564.5,118.833 564.5,123.5C 563.504,123.586 562.671,123.252 562,122.5C 561.667,119.167 561.333,115.833 561,112.5C 560.439,111.978 559.772,111.645 559,111.5C 556.814,111.966 554.648,112.299 552.5,112.5C 521.542,111.674 490.542,111.174 459.5,111C 456.032,109.03 452.699,106.864 449.5,104.5C 447.056,101.736 445.056,98.7363 443.5,95.5 Z"/></g>
<g><path style="opacity:1" fill="#fee7ee" d="M 619.5,99.5 C 619.182,103.151 617.182,105.151 613.5,105.5C 612.833,106.5 612.167,107.5 611.5,108.5C 603.319,110.707 594.986,111.873 586.5,112C 585.675,113.688 584.675,113.855 583.5,112.5C 580.083,114.97 578.75,118.303 579.5,122.5C 577.784,122.629 576.117,122.962 574.5,123.5C 571.518,123.104 568.851,123.771 566.5,125.5C 565.893,125.376 565.56,125.043 565.5,124.5C 567.54,122.823 569.54,121.156 571.5,119.5C 575.959,116.213 580.292,112.713 584.5,109C 591.167,108.667 597.833,108.333 604.5,108C 606.315,107.243 607.981,106.41 609.5,105.5C 611.853,104.66 613.853,103.326 615.5,101.5C 617.062,101.267 618.395,100.6 619.5,99.5 Z"/></g>
<g><path style="opacity:1" fill="#9cc1e1" d="M 548.5,166.5 C 422.167,166.5 295.833,166.5 169.5,166.5C 169.5,152.5 169.5,138.5 169.5,124.5C 169.5,124.167 169.5,123.833 169.5,123.5C 295.432,122.169 421.432,122.169 547.5,123.5C 548.483,137.785 548.816,152.118 548.5,166.5 Z"/></g>
<g><path style="opacity:1" fill="#90c9f7" d="M 543.5,124.5 C 545.124,124.36 546.29,125.027 547,126.5C 547.5,139.496 547.667,152.496 547.5,165.5C 422.5,165.667 297.5,165.5 172.5,165C 170.531,152.415 169.864,139.582 170.5,126.5C 294.762,125.129 419.095,124.462 543.5,124.5 Z"/></g>
<g><path style="opacity:1" fill="#e0f9fd" d="M 523.5,138.5 C 525.929,138.585 527.929,139.585 529.5,141.5C 531.071,139.585 533.071,138.585 535.5,138.5C 535.415,140.929 534.415,142.929 532.5,144.5C 534.139,145.916 534.973,147.583 535,149.5C 534.586,149.957 534.086,150.291 533.5,150.5C 532.167,149.5 530.833,148.5 529.5,147.5C 527.929,149.415 525.929,150.415 523.5,150.5C 523.585,148.071 524.585,146.071 526.5,144.5C 524.585,142.929 523.585,140.929 523.5,138.5 Z"/></g>
<g><path style="opacity:1" fill="#96c9f0" d="M 543.5,124.5 C 419.095,124.462 294.762,125.129 170.5,126.5C 170.414,125.504 170.748,124.671 171.5,124C 295.667,123.167 419.667,123.334 543.5,124.5 Z"/></g>
<g><path style="opacity:1" fill="#d0eafd" d="M 169.5,124.5 C 169.5,138.5 169.5,152.5 169.5,166.5C 295.833,166.5 422.167,166.5 548.5,166.5C 422.001,167.5 295.334,167.833 168.5,167.5C 168.171,152.99 168.504,138.657 169.5,124.5 Z"/></g>
<g><path style="opacity:1" fill="#eefbfe" d="M 358.5,119.5 C 421.333,120.832 484.167,120.832 547,119.5C 548.351,121.019 549.851,122.352 551.5,123.5C 550.872,132.987 550.538,142.487 550.5,152C 550.768,155.574 551.435,159.074 552.5,162.5C 552.113,164.274 551.447,165.941 550.5,167.5C 561.872,168.243 573.205,168.909 584.5,169.5C 585.478,169.023 586.311,168.357 587,167.5C 587.333,168.167 587.667,168.833 588,169.5C 589.751,168.826 591.417,168.493 593,168.5C 593.464,169.094 593.631,169.761 593.5,170.5C 578.657,170.171 563.99,170.504 549.5,171.5C 548.509,177.979 548.176,184.646 548.5,191.5C 548.5,191.833 548.5,192.167 548.5,192.5C 548.5,193.833 548.5,195.167 548.5,196.5C 547.831,309.069 547.165,421.736 546.5,534.5C 421.167,534.5 295.833,534.5 170.5,534.5C 170.833,420.999 170.5,307.665 169.5,194.5C 169.5,187.167 169.5,179.833 169.5,172.5C 170.391,173.261 171.058,174.261 171.5,175.5C 170.744,180.689 170.41,185.856 170.5,191C 171.167,192.667 171.833,194.333 172.5,196C 171.503,308.472 171.17,420.972 171.5,533.5C 295.913,533.247 420.246,533.08 544.5,533C 545,532.5 545.5,532 546,531.5C 546.373,411.492 546.706,291.492 547,171.5C 545.933,170.809 544.766,170.309 543.5,170C 418.793,169.17 294.127,169.337 169.5,170.5C 149.993,170.17 130.659,170.503 111.5,171.5C 111.217,172.289 110.717,172.956 110,173.5C 109.5,248.833 109.333,324.166 109.5,399.5C 109.167,399.5 108.833,399.5 108.5,399.5C 108.5,369.167 108.5,338.833 108.5,308.5C 108.182,262.137 108.515,215.803 109.5,169.5C 127.797,169.366 146.13,169.199 164.5,169C 166.058,168.79 167.391,168.29 168.5,167.5C 295.334,167.833 422.001,167.5 548.5,166.5C 548.816,152.118 548.483,137.785 547.5,123.5C 421.432,122.169 295.432,122.169 169.5,123.5C 169.414,122.504 169.748,121.671 170.5,121C 176,120.5 181.5,120 187,119.5C 244.168,120.753 301.335,120.753 358.5,119.5 Z"/></g>
<g><path style="opacity:1" fill="#fefefe" d="M 169.5,172.5 C 169.5,171.833 169.5,171.167 169.5,170.5C 294.127,169.337 418.793,169.17 543.5,170C 544.766,170.309 545.933,170.809 547,171.5C 546.706,291.492 546.373,411.492 546,531.5C 545.5,532 545,532.5 544.5,533C 420.246,533.08 295.913,533.247 171.5,533.5C 171.17,420.972 171.503,308.472 172.5,196C 171.833,194.333 171.167,192.667 170.5,191C 170.41,185.856 170.744,180.689 171.5,175.5C 171.058,174.261 170.391,173.261 169.5,172.5 Z"/></g>
<g><path style="opacity:1" fill="#92c9f5" d="M 121.5,172.5 C 121.169,293.57 121.502,414.57 122.5,535.5C 118.5,535.5 114.5,535.5 110.5,535.5C 110.333,415.166 110.5,294.833 111,174.5C 111.5,174 112,173.5 112.5,173C 115.482,172.502 118.482,172.335 121.5,172.5 Z"/></g>
<g><path style="opacity:1" fill="#a5c9e6" d="M 111.5,171.5 C 116.28,171.118 119.614,171.451 121.5,172.5C 118.482,172.335 115.482,172.502 112.5,173C 112,173.5 111.5,174 111,174.5C 110.5,294.833 110.333,415.166 110.5,535.5C 110.672,536.492 110.338,537.158 109.5,537.5C 109.5,491.5 109.5,445.5 109.5,399.5C 109.333,324.166 109.5,248.833 110,173.5C 110.717,172.956 111.217,172.289 111.5,171.5 Z"/></g>
<g><path style="opacity:1" fill="#b9defb" d="M 595.5,533.5 C 595.5,534.167 595.5,534.833 595.5,535.5C 591.167,535.5 586.833,535.5 582.5,535.5C 583.269,422.472 582.936,309.472 581.5,196.5C 581.443,195.391 581.11,194.391 580.5,193.5C 570.013,192.506 559.346,192.172 548.5,192.5C 548.5,192.167 548.5,191.833 548.5,191.5C 549.222,191.082 549.722,190.416 550,189.5C 550.499,183.843 550.666,178.176 550.5,172.5C 564.171,172.333 577.837,172.5 591.5,173C 592.416,173.374 593.25,173.874 594,174.5C 594.667,202.167 594.667,229.833 594,257.5C 593.608,260.188 593.108,262.855 592.5,265.5C 593.325,268.466 593.992,271.466 594.5,274.5C 594.122,314.471 594.122,354.471 594.5,394.5C 594.333,429.833 594.167,465.167 594,500.5C 593.219,501.729 592.719,503.062 592.5,504.5C 594.023,514.234 595.023,523.9 595.5,533.5 Z"/></g>
<g><path style="opacity:1" fill="#daf7ff" d="M 548.5,196.5 C 548.5,309.5 548.5,422.5 548.5,535.5C 547.833,535.5 547.167,535.5 546.5,535.5C 546.5,535.167 546.5,534.833 546.5,534.5C 547.165,421.736 547.831,309.069 548.5,196.5 Z"/></g>
<g><path style="opacity:1" fill="#335d87" d="M 548.5,192.5 C 559.346,192.172 570.013,192.506 580.5,193.5C 570.167,193.5 559.833,193.5 549.5,193.5C 549.5,307.5 549.5,421.5 549.5,535.5C 549.167,535.5 548.833,535.5 548.5,535.5C 548.5,422.5 548.5,309.5 548.5,196.5C 548.5,195.167 548.5,193.833 548.5,192.5 Z"/></g>
<g><path style="opacity:1" fill="#164994" d="M 580.5,193.5 C 581.11,194.391 581.443,195.391 581.5,196.5C 581.5,309.5 581.5,422.5 581.5,535.5C 570.833,535.5 560.167,535.5 549.5,535.5C 549.5,421.5 549.5,307.5 549.5,193.5C 559.833,193.5 570.167,193.5 580.5,193.5 Z"/></g>
<g><path style="opacity:1" fill="#0e46a1" d="M 555.5,195.5 C 563.167,195.5 570.833,195.5 578.5,195.5C 578.882,307.658 579.215,419.825 579.5,532C 575.098,533.908 570.432,534.741 565.5,534.5C 560.82,534.249 556.154,533.916 551.5,533.5C 551.5,421.167 551.5,308.833 551.5,196.5C 553.099,196.768 554.432,196.434 555.5,195.5 Z"/></g>
<g><path style="opacity:1" fill="#0b47a0" d="M 565.5,211.5 C 568.921,213.147 572.587,213.813 576.5,213.5C 576.246,218.666 574.746,219.333 572,215.5C 571.888,218.447 570.388,219.78 567.5,219.5C 567.5,224.167 567.5,228.833 567.5,233.5C 568.5,233.5 569.5,233.5 570.5,233.5C 570.5,235.5 570.5,237.5 570.5,239.5C 569.5,239.5 568.5,239.5 567.5,239.5C 567.238,240.978 567.571,242.311 568.5,243.5C 570.635,244.881 572.968,245.881 575.5,246.5C 576.365,249.544 576.032,252.544 574.5,255.5C 572.477,253.827 570.144,253.16 567.5,253.5C 567.5,258.167 567.5,262.833 567.5,267.5C 573.678,266.032 577.011,268.365 577.5,274.5C 576.164,278.315 575.331,282.315 575,286.5C 574.667,286.833 574.333,287.167 574,287.5C 572.246,285.75 570.079,285.083 567.5,285.5C 567.5,292.833 567.5,300.167 567.5,307.5C 570.777,307.216 573.943,307.549 577,308.5C 575.72,314.609 574.72,320.942 574,327.5C 573.502,324.183 573.335,320.85 573.5,317.5C 571.5,317.5 569.5,317.5 567.5,317.5C 567.5,322.167 567.5,326.833 567.5,331.5C 569.833,331.5 572.167,331.5 574.5,331.5C 574.713,334.475 575.713,337.142 577.5,339.5C 575.191,343.118 574.024,347.118 574,351.5C 572.246,349.75 570.079,349.083 567.5,349.5C 567.5,356.833 567.5,364.167 567.5,371.5C 570.777,371.216 573.943,371.549 577,372.5C 575.72,378.609 574.72,384.942 574,391.5C 573.502,388.183 573.335,384.85 573.5,381.5C 571.5,381.5 569.5,381.5 567.5,381.5C 567.5,386.167 567.5,390.833 567.5,395.5C 569.833,395.5 572.167,395.5 574.5,395.5C 574.713,398.475 575.713,401.142 577.5,403.5C 575.191,407.118 574.024,411.118 574,415.5C 572.246,413.75 570.079,413.083 567.5,413.5C 567.5,420.833 567.5,428.167 567.5,435.5C 570.777,435.216 573.943,435.549 577,436.5C 575.908,442.726 574.908,449.059 574,455.5C 573.502,452.183 573.335,448.85 573.5,445.5C 571.5,445.5 569.5,445.5 567.5,445.5C 567.5,450.167 567.5,454.833 567.5,459.5C 569.833,459.5 572.167,459.5 574.5,459.5C 575.735,466.174 575.568,472.841 574,479.5C 572.246,477.75 570.079,477.083 567.5,477.5C 567.5,484.833 567.5,492.167 567.5,499.5C 570.777,499.216 573.943,499.549 577,500.5C 575.808,506.255 575.141,512.255 575,518.5C 574.667,518.833 574.333,519.167 574,519.5C 573.502,516.183 573.335,512.85 573.5,509.5C 571.5,509.5 569.5,509.5 567.5,509.5C 567.828,514.875 567.495,520.208 566.5,525.5C 565.719,524.271 565.219,522.938 565,521.5C 564.194,418.159 564.36,314.826 565.5,211.5 Z"/></g>
<g><path style="opacity:1" fill="#e5f3fa" d="M 452.5,287.5 C 449.198,280.865 444.198,275.865 437.5,272.5C 437.158,271.662 436.492,271.328 435.5,271.5C 433.723,270.4 431.723,269.566 429.5,269C 418.663,266.976 408.663,268.809 399.5,274.5C 399.281,273.325 399.614,272.325 400.5,271.5C 416.414,264.641 432.081,265.141 447.5,273C 446.833,273.333 446.167,273.667 445.5,274C 446.833,274.333 448.167,274.667 449.5,275C 448.346,275.914 448.513,276.747 450,277.5C 450.333,276.833 450.667,276.167 451,275.5C 451.501,279.51 452.001,283.51 452.5,287.5 Z"/></g>
<g><path style="opacity:1" fill="#0d387c" d="M 435.5,271.5 C 436.492,271.328 437.158,271.662 437.5,272.5C 439.381,274.561 441.047,276.894 442.5,279.5C 442,279.833 441.5,280.167 441,280.5C 428.576,273.533 416.243,272.866 404,278.5C 403.349,276.765 403.515,275.098 404.5,273.5C 410.196,272.132 415.863,270.798 421.5,269.5C 426.277,269.541 430.943,270.207 435.5,271.5 Z"/></g>
<g><path style="opacity:1" fill="#193b74" d="M 435.5,271.5 C 430.943,270.207 426.277,269.541 421.5,269.5C 415.863,270.798 410.196,272.132 404.5,273.5C 403.515,275.098 403.349,276.765 404,278.5C 416.243,272.866 428.576,273.533 441,280.5C 441.5,280.167 442,279.833 442.5,279.5C 441.047,276.894 439.381,274.561 437.5,272.5C 444.198,275.865 449.198,280.865 452.5,287.5C 453.569,290.408 453.736,293.408 453,296.5C 451,299.167 449,299.167 447,296.5C 441.816,280.021 430.65,273.521 413.5,277C 402.839,279.785 396.339,286.618 394,297.5C 388.311,298.799 386.311,296.466 388,290.5C 390.537,284.146 394.37,278.812 399.5,274.5C 408.663,268.809 418.663,266.976 429.5,269C 431.723,269.566 433.723,270.4 435.5,271.5 Z"/></g>
<g><path style="opacity:1" fill="#193b74" d="M 291.5,276.5 C 291.918,275.778 292.584,275.278 293.5,275C 301.164,274.256 308.331,275.756 315,279.5C 315.667,278.167 315.667,276.833 315,275.5C 302.93,267.887 290.764,267.721 278.5,275C 277.167,276.333 277.167,277.667 278.5,279C 280.107,278.981 281.774,278.815 283.5,278.5C 276.64,282.529 272.473,288.529 271,296.5C 268.577,298.994 266.244,298.994 264,296.5C 264.957,283.81 271.457,274.977 283.5,270C 299.753,265.534 313.586,269.367 325,281.5C 328.428,286 329.762,291 329,296.5C 327,299.167 325,299.167 323,296.5C 318.163,281.198 307.663,274.531 291.5,276.5 Z"/></g>
<g><path style="opacity:1" fill="#10397d" d="M 291.5,276.5 C 288.673,276.584 286.006,277.25 283.5,278.5C 281.774,278.815 280.107,278.981 278.5,279C 277.167,277.667 277.167,276.333 278.5,275C 290.764,267.721 302.93,267.887 315,275.5C 315.667,276.833 315.667,278.167 315,279.5C 308.331,275.756 301.164,274.256 293.5,275C 292.584,275.278 291.918,275.778 291.5,276.5 Z"/></g>
<g><path style="opacity:1" fill="#f6fbfd" d="M 108.5,308.5 C 108.5,338.833 108.5,369.167 108.5,399.5C 102.511,408.142 96.1773,416.642 89.5,425C 84.0738,427.656 79.7404,426.489 76.5,421.5C 74.013,415.572 73.8464,409.572 76,403.5C 80.7792,397.226 84.4458,390.226 87,382.5C 88.5221,373.114 86.8554,364.447 82,356.5C 78.9517,354.904 76.4517,352.737 74.5,350C 71.8261,349.33 69.4927,348.163 67.5,346.5C 70.7648,346.701 73.4315,345.534 75.5,343C 77.5568,342.695 79.5568,342.695 81.5,343C 84.2504,339.323 85.7504,335.157 86,330.5C 89.2147,326.313 93.3814,323.813 98.5,323C 99.6853,321.647 101.019,320.48 102.5,319.5C 103.167,320.833 103.833,322.167 104.5,323.5C 106.847,318.497 108.181,313.497 108.5,308.5 Z"/></g>
<g><path style="opacity:1" fill="#f6fbfd" d="M 683.5,324.5 C 685.582,324.624 687.082,325.624 688,327.5C 688.333,327.167 688.667,326.833 689,326.5C 690.734,327.249 692.567,327.749 694.5,328C 695.09,329.509 695.756,331.009 696.5,332.5C 698.002,333.083 699.335,333.916 700.5,335C 699.269,336.183 699.269,337.349 700.5,338.5C 702.883,337.538 703.883,338.538 703.5,341.5C 710.187,339.865 712.853,342.198 711.5,348.5C 716.626,350.649 721.626,352.982 726.5,355.5C 727.466,357.396 727.799,359.396 727.5,361.5C 730.119,361.232 732.619,361.565 735,362.5C 735.333,368.167 735.667,373.833 736,379.5C 738.944,383.114 742.777,384.447 747.5,383.5C 747.5,384.833 747.5,386.167 747.5,387.5C 748.833,387.5 750.167,387.5 751.5,387.5C 751.292,389.92 751.626,392.253 752.5,394.5C 754.781,395.277 756.948,396.277 759,397.5C 759.498,400.817 759.665,404.15 759.5,407.5C 758.167,407.5 756.833,407.5 755.5,407.5C 755.343,408.873 755.51,410.207 756,411.5C 758.333,413.833 760.667,416.167 763,418.5C 763.5,436.83 763.667,455.164 763.5,473.5C 764.978,473.238 766.311,473.571 767.5,474.5C 765.954,480.04 765.12,485.706 765,491.5C 763.806,493.623 763.14,495.957 763,498.5C 761.701,499.09 760.868,500.09 760.5,501.5C 759.575,509.665 756.742,516.998 752,523.5C 751.79,526.234 750.956,528.734 749.5,531C 750.167,531.667 750.833,532.333 751.5,533C 761.5,533.333 771.5,533.667 781.5,534C 795.108,538.798 799.608,548.298 795,562.5C 792.629,564.373 790.129,566.039 787.5,567.5C 793.189,561.649 795.022,554.649 793,546.5C 790.063,541.566 785.897,538.066 780.5,536C 719.168,535.5 657.834,535.333 596.5,535.5C 596.333,503.498 596.5,471.498 597,439.5C 599.245,436.093 602.412,434.76 606.5,435.5C 610.161,435.428 613.661,436.095 617,437.5C 621.004,436.611 624.504,437.778 627.5,441C 635.945,443.656 643.945,442.823 651.5,438.5C 654.039,435.829 655.705,432.662 656.5,429C 655.429,425.088 654.095,421.255 652.5,417.5C 649.795,415.472 646.795,415.139 643.5,416.5C 635.044,417.278 629.044,413.945 625.5,406.5C 626.216,402.921 628.216,400.421 631.5,399C 635.821,398.501 640.154,398.334 644.5,398.5C 644.662,400.824 645.828,402.491 648,403.5C 648.561,402.978 649.228,402.645 650,402.5C 656.534,404.84 663.034,405.006 669.5,403C 668.833,402.667 668.167,402.333 667.5,402C 670.117,401.178 672.784,400.678 675.5,400.5C 674.715,396.404 675.882,393.07 679,390.5C 679.667,386.5 679.667,382.5 679,378.5C 675.866,375.788 672.2,374.455 668,374.5C 660.206,376.474 652.372,376.808 644.5,375.5C 642.605,373.133 642.105,370.466 643,367.5C 643.401,365.479 644.568,364.145 646.5,363.5C 647.452,361.955 647.785,360.288 647.5,358.5C 657.475,357.894 667.142,355.894 676.5,352.5C 678.587,350.255 679.921,347.588 680.5,344.5C 681.478,344.023 682.311,343.357 683,342.5C 682.741,338.336 684.241,335.003 687.5,332.5C 686.653,329.471 685.319,326.805 683.5,324.5 Z"/></g>
<g><path style="opacity:1" fill="#e9f3fc" d="M 549.5,171.5 C 563.99,170.504 578.657,170.171 593.5,170.5C 594.5,170.5 595.5,170.5 596.5,170.5C 596.223,225.842 596.557,281.175 597.5,336.5C 601.422,335.707 605.088,335.041 608.5,334.5C 610.927,336.079 613.26,337.913 615.5,340C 616.793,340.49 618.127,340.657 619.5,340.5C 619.62,342.734 619.287,344.901 618.5,347C 619.958,353.222 622.125,359.056 625,364.5C 627.737,365.61 630.571,365.777 633.5,365C 635.107,363.951 635.773,362.451 635.5,360.5C 636.822,360.67 637.989,360.337 639,359.5C 639.409,353.49 639.242,347.49 638.5,341.5C 635.984,341.245 633.65,340.411 631.5,339C 632.428,338.612 633.095,337.945 633.5,337C 632.963,335.208 632.63,333.375 632.5,331.5C 633.579,327.462 634.579,323.462 635.5,319.5C 636.675,319.719 637.675,319.386 638.5,318.5C 639.074,316.941 639.74,315.441 640.5,314C 643.998,311.75 647.664,309.75 651.5,308C 658.667,307.47 665.333,308.97 671.5,312.5C 674.189,315.697 677.523,318.197 681.5,320C 683.037,321.11 683.703,322.61 683.5,324.5C 685.319,326.805 686.653,329.471 687.5,332.5C 684.241,335.003 682.741,338.336 683,342.5C 682.311,343.357 681.478,344.023 680.5,344.5C 679.921,347.588 678.587,350.255 676.5,352.5C 667.142,355.894 657.475,357.894 647.5,358.5C 647.785,360.288 647.452,361.955 646.5,363.5C 644.568,364.145 643.401,365.479 643,367.5C 642.105,370.466 642.605,373.133 644.5,375.5C 652.372,376.808 660.206,376.474 668,374.5C 672.2,374.455 675.866,375.788 679,378.5C 679.667,382.5 679.667,386.5 679,390.5C 675.882,393.07 674.715,396.404 675.5,400.5C 672.784,400.678 670.117,401.178 667.5,402C 668.167,402.333 668.833,402.667 669.5,403C 663.034,405.006 656.534,404.84 650,402.5C 649.228,402.645 648.561,402.978 648,403.5C 645.828,402.491 644.662,400.824 644.5,398.5C 640.154,398.334 635.821,398.501 631.5,399C 628.216,400.421 626.216,402.921 625.5,406.5C 629.044,413.945 635.044,417.278 643.5,416.5C 646.795,415.139 649.795,415.472 652.5,417.5C 654.095,421.255 655.429,425.088 656.5,429C 655.705,432.662 654.039,435.829 651.5,438.5C 643.945,442.823 635.945,443.656 627.5,441C 624.504,437.778 621.004,436.611 617,437.5C 613.661,436.095 610.161,435.428 606.5,435.5C 602.412,434.76 599.245,436.093 597,439.5C 596.5,471.498 596.333,503.498 596.5,535.5C 596.167,535.5 595.833,535.5 595.5,535.5C 595.5,534.833 595.5,534.167 595.5,533.5C 595.667,413.5 595.5,293.5 595,173.5C 594.5,173 594,172.5 593.5,172C 578.837,171.5 564.17,171.333 549.5,171.5 Z"/></g>
<g><path style="opacity:1" fill="#c2dcef" d="M 549.5,171.5 C 564.17,171.333 578.837,171.5 593.5,172C 594,172.5 594.5,173 595,173.5C 595.5,293.5 595.667,413.5 595.5,533.5C 595.023,523.9 594.023,514.234 592.5,504.5C 592.719,503.062 593.219,501.729 594,500.5C 594.167,465.167 594.333,429.833 594.5,394.5C 594.122,354.471 594.122,314.471 594.5,274.5C 593.992,271.466 593.325,268.466 592.5,265.5C 593.108,262.855 593.608,260.188 594,257.5C 594.667,229.833 594.667,202.167 594,174.5C 593.25,173.874 592.416,173.374 591.5,173C 577.837,172.5 564.171,172.333 550.5,172.5C 550.666,178.176 550.499,183.843 550,189.5C 549.722,190.416 549.222,191.082 548.5,191.5C 548.176,184.646 548.509,177.979 549.5,171.5 Z"/></g>
<g><path style="opacity:1" fill="#b8defa" d="M 111.5,171.5 C 130.659,170.503 149.993,170.17 169.5,170.5C 169.5,171.167 169.5,171.833 169.5,172.5C 169.5,179.833 169.5,187.167 169.5,194.5C 169.5,308.167 169.5,421.833 169.5,535.5C 169.167,535.5 168.833,535.5 168.5,535.5C 168.5,535.167 168.5,534.833 168.5,534.5C 168.5,420.5 168.5,306.5 168.5,192.5C 157.654,192.172 146.987,192.506 136.5,193.5C 135.5,307.332 135.167,421.332 135.5,535.5C 131.167,535.5 126.833,535.5 122.5,535.5C 121.502,414.57 121.169,293.57 121.5,172.5C 119.614,171.451 116.28,171.118 111.5,171.5 Z"/></g>
<g><path style="opacity:1" fill="#0d47a0" d="M 137.5,323.5 C 137.5,281.167 137.5,238.833 137.5,196.5C 147.084,195.527 156.75,195.194 166.5,195.5C 166.491,308.335 166.491,421.335 166.5,534.5C 157.827,534.666 149.16,534.5 140.5,534C 139.833,533.333 139.167,532.667 138.5,532C 138.737,471.441 139.07,410.107 139.5,348C 138.847,339.735 138.18,331.568 137.5,323.5 Z"/></g>
<g><path style="opacity:1" fill="#0e3981" d="M 390.5,414.5 C 392.25,417.321 394.25,419.988 396.5,422.5C 399.055,423.76 401.555,425.094 404,426.5C 404.494,428.134 404.66,429.801 404.5,431.5C 406.621,431.325 408.621,431.659 410.5,432.5C 413.326,437.816 415.659,443.316 417.5,449C 416.534,452.435 416.534,455.935 417.5,459.5C 416.028,462.077 413.695,463.41 410.5,463.5C 405.341,462.628 400.341,461.294 395.5,459.5C 394.71,458.206 393.71,457.039 392.5,456C 388.261,452.91 383.928,450.077 379.5,447.5C 376.506,442.983 372.173,440.816 366.5,441C 361.483,440.41 356.483,440.577 351.5,441.5C 349.667,441.585 348.334,442.252 347.5,443.5C 347.5,443.833 347.5,444.167 347.5,444.5C 341.854,445.486 336.854,447.82 332.5,451.5C 331.078,451.709 329.745,452.209 328.5,453C 325.712,454.719 323.379,456.885 321.5,459.5C 320.833,459.5 320.5,459.833 320.5,460.5C 318.194,460.993 315.861,461.326 313.5,461.5C 309.034,461.844 305.034,460.677 301.5,458C 302.5,457 303.5,456 304.5,455C 303.216,454.316 302.049,454.483 301,455.5C 300.626,454.584 300.126,453.75 299.5,453C 301.925,446.98 303.925,440.813 305.5,434.5C 309.481,431.104 313.147,427.27 316.5,423C 319.167,421 321.833,419 324.5,417C 331.671,414.704 338.671,412.037 345.5,409C 355.192,408.409 364.859,408.742 374.5,410C 380.1,410.897 385.434,412.397 390.5,414.5 Z"/></g>
<g><path style="opacity:1" fill="#224075" d="M 390.5,414.5 C 385.434,412.397 380.1,410.897 374.5,410C 364.859,408.742 355.192,408.409 345.5,409C 338.671,412.037 331.671,414.704 324.5,417C 321.833,419 319.167,421 316.5,423C 313.147,427.27 309.481,431.104 305.5,434.5C 320.371,412.904 341.038,403.404 367.5,406C 375.745,407.578 383.411,410.411 390.5,414.5 Z"/></g>
<g><path style="opacity:1" fill="#003989" d="M 136.5,193.5 C 145.349,193.174 154.016,193.507 162.5,194.5C 153.766,193.865 145.433,194.532 137.5,196.5C 137.5,238.833 137.5,281.167 137.5,323.5C 137.169,393.738 137.502,463.904 138.5,534C 137.906,534.464 137.239,534.631 136.5,534.5C 136.5,420.833 136.5,307.167 136.5,193.5 Z"/></g>
<g><path style="opacity:1" fill="#153a73" d="M 390.5,414.5 C 398.736,418.735 405.402,424.735 410.5,432.5C 408.621,431.659 406.621,431.325 404.5,431.5C 404.66,429.801 404.494,428.134 404,426.5C 401.555,425.094 399.055,423.76 396.5,422.5C 394.25,419.988 392.25,417.321 390.5,414.5 Z"/></g>
<g><path style="opacity:1" fill="#0f499b" d="M 162.5,194.5 C 164.167,194.5 165.833,194.5 167.5,194.5C 167.167,308.001 167.5,421.335 168.5,534.5C 168.5,534.833 168.5,535.167 168.5,535.5C 157.654,535.828 146.987,535.494 136.5,534.5C 137.239,534.631 137.906,534.464 138.5,534C 137.502,463.904 137.169,393.738 137.5,323.5C 138.18,331.568 138.847,339.735 139.5,348C 139.07,410.107 138.737,471.441 138.5,532C 139.167,532.667 139.833,533.333 140.5,534C 149.16,534.5 157.827,534.666 166.5,534.5C 166.491,421.335 166.491,308.335 166.5,195.5C 156.75,195.194 147.084,195.527 137.5,196.5C 145.433,194.532 153.766,193.865 162.5,194.5 Z"/></g>
<g><path style="opacity:1" fill="#e1edfa" d="M 67.5,346.5 C 69.4927,348.163 71.8261,349.33 74.5,350C 76.4517,352.737 78.9517,354.904 82,356.5C 86.8554,364.447 88.5221,373.114 87,382.5C 84.4458,390.226 80.7792,397.226 76,403.5C 73.8464,409.572 74.013,415.572 76.5,421.5C 79.7404,426.489 84.0738,427.656 89.5,425C 96.1773,416.642 102.511,408.142 108.5,399.5C 108.833,399.5 109.167,399.5 109.5,399.5C 109.5,445.5 109.5,491.5 109.5,537.5C 109.5,547.833 109.5,558.167 109.5,568.5C 109.167,568.5 108.833,568.5 108.5,568.5C 108.667,555.163 108.5,541.829 108,528.5C 107.167,527.667 106.333,526.833 105.5,526C 101.372,525.602 97.7056,524.102 94.5,521.5C 89.6558,519.769 84.6558,518.769 79.5,518.5C 69.0377,521.399 58.371,522.566 47.5,522C 39.8216,517.984 34.6549,511.818 32,503.5C 31.1717,498.798 31.3384,494.131 32.5,489.5C 34.6088,488.35 36.6088,487.016 38.5,485.5C 40.7754,484.893 43.1088,484.559 45.5,484.5C 52.7594,486.105 60.0927,486.605 67.5,486C 72.4593,485.103 75.126,482.103 75.5,477C 75.5906,471.763 73.2572,468.096 68.5,466C 59.4879,465.358 50.4879,465.524 41.5,466.5C 28.5963,467.428 20.0963,461.762 16,449.5C 14.7821,444.545 14.4488,439.545 15,434.5C 16.1217,432.376 17.6217,430.543 19.5,429C 23.5,428.333 27.5,428.333 31.5,429C 40.1929,430.998 48.8596,432.832 57.5,434.5C 65.945,433.17 69.1117,428.17 67,419.5C 65.3333,417.833 63.6667,416.167 62,414.5C 61.6667,414.833 61.3333,415.167 61,415.5C 56.7417,410.611 51.2417,407.778 44.5,407C 41.4346,404.611 38.1013,402.611 34.5,401C 18.9367,385.888 18.6034,370.555 33.5,355C 36.7106,354.268 38.7106,352.434 39.5,349.5C 43.5948,349.192 47.5948,348.359 51.5,347C 56.8229,346.501 62.1563,346.334 67.5,346.5 Z"/></g>
<g><path style="opacity:1" fill="#302e6b" d="M 379.5,447.5 C 378.833,447.5 378.167,447.5 377.5,447.5C 376.653,446.034 375.32,445.2 373.5,445C 364.932,442.508 356.265,442.008 347.5,443.5C 348.334,442.252 349.667,441.585 351.5,441.5C 356.483,440.577 361.483,440.41 366.5,441C 372.173,440.816 376.506,442.983 379.5,447.5 Z"/></g>
<g><path style="opacity:1" fill="#be638a" d="M 377.5,447.5 C 373.658,447.17 369.991,446.337 366.5,445C 360.175,444.5 353.842,444.334 347.5,444.5C 347.5,444.167 347.5,443.833 347.5,443.5C 356.265,442.008 364.932,442.508 373.5,445C 375.32,445.2 376.653,446.034 377.5,447.5 Z"/></g>
<g><path style="opacity:1" fill="#b9628f" d="M 347.5,444.5 C 342.97,447.595 337.97,449.929 332.5,451.5C 336.854,447.82 341.854,445.486 347.5,444.5 Z"/></g>
<g><path style="opacity:1" fill="#173b73" d="M 410.5,432.5 C 414.427,437.35 417.594,442.683 420,448.5C 420.667,451.167 420.667,453.833 420,456.5C 419.623,457.942 418.79,458.942 417.5,459.5C 416.534,455.935 416.534,452.435 417.5,449C 415.659,443.316 413.326,437.816 410.5,432.5 Z"/></g>
<g><path style="opacity:1" fill="#f15970" d="M 347.5,444.5 C 353.842,444.334 360.175,444.5 366.5,445C 369.991,446.337 373.658,447.17 377.5,447.5C 380.276,450.55 383.609,452.883 387.5,454.5C 386.306,455.777 384.64,456.444 382.5,456.5C 365.999,453.847 349.499,453.847 333,456.5C 330.422,456.318 329.922,455.318 331.5,453.5C 331.833,452.833 332.167,452.167 332.5,451.5C 337.97,449.929 342.97,447.595 347.5,444.5 Z"/></g>
<g><path style="opacity:1" fill="#ac678e" d="M 332.5,451.5 C 332.167,452.167 331.833,452.833 331.5,453.5C 329.405,454.412 327.405,455.579 325.5,457C 324.262,457.69 324.262,458.19 325.5,458.5C 324.432,459.434 323.099,459.768 321.5,459.5C 323.379,456.885 325.712,454.719 328.5,453C 329.745,452.209 331.078,451.709 332.5,451.5 Z"/></g>
<g><path style="opacity:1" fill="#1a3e78" d="M 305.5,434.5 C 303.925,440.813 301.925,446.98 299.5,453C 300.126,453.75 300.626,454.584 301,455.5C 302.049,454.483 303.216,454.316 304.5,455C 303.5,456 302.5,457 301.5,458C 305.034,460.677 309.034,461.844 313.5,461.5C 305.853,465.656 300.353,463.656 297,455.5C 297.076,447.352 299.91,440.352 305.5,434.5 Z"/></g>
<g><path style="opacity:1" fill="#aed7fe" d="M 581.5,196.5 C 582.936,309.472 583.269,422.472 582.5,535.5C 582.167,535.5 581.833,535.5 581.5,535.5C 581.5,422.5 581.5,309.5 581.5,196.5 Z"/></g>
<g><path style="opacity:1" fill="#d46378" d="M 331.5,453.5 C 329.922,455.318 330.422,456.318 333,456.5C 349.499,453.847 365.999,453.847 382.5,456.5C 384.64,456.444 386.306,455.777 387.5,454.5C 388.478,454.811 389.145,455.478 389.5,456.5C 387.604,457.466 385.604,457.799 383.5,457.5C 364.127,455.946 344.794,456.279 325.5,458.5C 324.262,458.19 324.262,457.69 325.5,457C 327.405,455.579 329.405,454.412 331.5,453.5 Z"/></g>
<g><path style="opacity:1" fill="#fdd8e3" d="M 383.5,457.5 C 384.833,458.167 386.167,458.833 387.5,459.5C 365.125,457.948 342.791,458.281 320.5,460.5C 320.5,459.833 320.833,459.5 321.5,459.5C 323.099,459.768 324.432,459.434 325.5,458.5C 344.794,456.279 364.127,455.946 383.5,457.5 Z"/></g>
<g><path style="opacity:1" fill="#c96f90" d="M 377.5,447.5 C 378.167,447.5 378.833,447.5 379.5,447.5C 383.928,450.077 388.261,452.91 392.5,456C 393.71,457.039 394.71,458.206 395.5,459.5C 392.833,459.5 390.167,459.5 387.5,459.5C 386.167,458.833 384.833,458.167 383.5,457.5C 385.604,457.799 387.604,457.466 389.5,456.5C 389.145,455.478 388.478,454.811 387.5,454.5C 383.609,452.883 380.276,450.55 377.5,447.5 Z"/></g>
<g><path style="opacity:1" fill="#124385" d="M 136.5,193.5 C 146.987,192.506 157.654,192.172 168.5,192.5C 168.5,306.5 168.5,420.5 168.5,534.5C 167.5,421.335 167.167,308.001 167.5,194.5C 165.833,194.5 164.167,194.5 162.5,194.5C 154.016,193.507 145.349,193.174 136.5,193.5 Z"/></g>
<g><path style="opacity:1" fill="#e5fefe" d="M 169.5,194.5 C 170.5,307.665 170.833,420.999 170.5,534.5C 295.833,534.5 421.167,534.5 546.5,534.5C 546.5,534.833 546.5,535.167 546.5,535.5C 420.833,535.5 295.167,535.5 169.5,535.5C 169.5,421.833 169.5,308.167 169.5,194.5 Z"/></g>
<g><path style="opacity:1" fill="#9ac3e4" d="M 169.5,536.5 C 169.5,536.167 169.5,535.833 169.5,535.5C 295.167,535.5 420.833,535.5 546.5,535.5C 547.167,535.5 547.833,535.5 548.5,535.5C 548.389,536.117 548.056,536.617 547.5,537C 499.485,537.804 451.485,537.638 403.5,536.5C 325.5,536.5 247.5,536.5 169.5,536.5 Z"/></g>
<g><path style="opacity:1" fill="#90c9f7" d="M 548.5,535.5 C 548.833,535.5 549.167,535.5 549.5,535.5C 560.167,535.5 570.833,535.5 581.5,535.5C 581.833,535.5 582.167,535.5 582.5,535.5C 584.849,537.631 587.516,537.965 590.5,536.5C 653.126,537.33 715.793,537.83 778.5,538C 789.027,539.861 793.193,546.028 791,556.5C 789.93,559.242 788.43,561.742 786.5,564C 782.068,566.256 777.401,567.922 772.5,569C 648.827,569.193 525.16,569.693 401.5,570.5C 412.888,564.506 416.055,555.506 411,543.5C 408.604,540.933 406.104,538.6 403.5,536.5C 451.485,537.638 499.485,537.804 547.5,537C 548.056,536.617 548.389,536.117 548.5,535.5 Z"/></g>
<g><path style="opacity:1" fill="#64b3f5" d="M 136.5,193.5 C 136.5,307.167 136.5,420.833 136.5,534.5C 146.987,535.494 157.654,535.828 168.5,535.5C 168.833,535.5 169.167,535.5 169.5,535.5C 169.5,535.833 169.5,536.167 169.5,536.5C 246.999,537.333 324.666,537.833 402.5,538C 404.007,538.837 404.507,540.004 404,541.5C 401.317,541.479 398.483,541.145 395.5,540.5C 395.5,545.5 395.5,550.5 395.5,555.5C 394.167,555.5 392.833,555.5 391.5,555.5C 390.833,550.167 390.167,550.167 389.5,555.5C 384.833,555.5 380.167,555.5 375.5,555.5C 375.5,556.833 375.5,558.167 375.5,559.5C 380.875,559.172 386.208,559.505 391.5,560.5C 384.858,561.331 378.191,561.831 371.5,562C 380.575,562.085 389.575,562.752 398.5,564C 398.833,564.333 399.167,564.667 399.5,565C 394.167,565.667 394.167,566.333 399.5,567C 396.5,567.333 393.5,567.667 390.5,568C 299.167,568.667 207.833,568.667 116.5,568C 114.899,567.727 113.399,567.227 112,566.5C 111.333,557.167 111.333,547.833 112,538.5C 119.89,537.149 127.724,536.149 135.5,535.5C 135.167,421.332 135.5,307.332 136.5,193.5 Z"/></g>
<g><path style="opacity:1" fill="#6cb1ea" d="M 110.5,535.5 C 114.5,535.5 118.5,535.5 122.5,535.5C 126.833,535.5 131.167,535.5 135.5,535.5C 127.724,536.149 119.89,537.149 112,538.5C 111.333,547.833 111.333,557.167 112,566.5C 113.399,567.227 114.899,567.727 116.5,568C 207.833,568.667 299.167,568.667 390.5,568C 393.5,567.667 396.5,567.333 399.5,567C 394.167,566.333 394.167,565.667 399.5,565C 399.167,564.667 398.833,564.333 398.5,564C 389.575,562.752 380.575,562.085 371.5,562C 378.191,561.831 384.858,561.331 391.5,560.5C 386.208,559.505 380.875,559.172 375.5,559.5C 375.5,558.167 375.5,556.833 375.5,555.5C 380.167,555.5 384.833,555.5 389.5,555.5C 390.167,550.167 390.833,550.167 391.5,555.5C 392.833,555.5 394.167,555.5 395.5,555.5C 395.5,550.5 395.5,545.5 395.5,540.5C 398.483,541.145 401.317,541.479 404,541.5C 404.507,540.004 404.007,538.837 402.5,538C 324.666,537.833 246.999,537.333 169.5,536.5C 247.5,536.5 325.5,536.5 403.5,536.5C 406.104,538.6 408.604,540.933 411,543.5C 416.055,555.506 412.888,564.506 401.5,570.5C 304.5,570.5 207.5,570.5 110.5,570.5C 110.167,569.833 109.833,569.167 109.5,568.5C 109.5,558.167 109.5,547.833 109.5,537.5C 110.338,537.158 110.672,536.492 110.5,535.5 Z"/></g>
<g><path style="opacity:1" fill="#46a5f1" d="M 180.5,547.5 C 189.839,547.334 199.173,547.5 208.5,548C 210.256,551.215 210.423,554.715 209,558.5C 199.911,559.65 190.745,559.817 181.5,559C 180.54,555.27 180.207,551.437 180.5,547.5 Z"/></g>
<g><path style="opacity:1" fill="#43a3f0" d="M 219.5,547.5 C 228.833,547.5 238.167,547.5 247.5,547.5C 247.5,551.167 247.5,554.833 247.5,558.5C 238.167,558.5 228.833,558.5 219.5,558.5C 219.5,554.833 219.5,551.167 219.5,547.5 Z"/></g>
<g><path style="opacity:1" fill="#a7cdec" d="M 582.5,535.5 C 586.833,535.5 591.167,535.5 595.5,535.5C 595.833,535.5 596.167,535.5 596.5,535.5C 657.834,535.333 719.168,535.5 780.5,536C 785.897,538.066 790.063,541.566 793,546.5C 795.022,554.649 793.189,561.649 787.5,567.5C 784.904,568.757 782.237,569.924 779.5,571C 556.333,571.833 333.333,571.666 110.5,570.5C 207.5,570.5 304.5,570.5 401.5,570.5C 525.16,569.693 648.827,569.193 772.5,569C 777.401,567.922 782.068,566.256 786.5,564C 788.43,561.742 789.93,559.242 791,556.5C 793.193,546.028 789.027,539.861 778.5,538C 715.793,537.83 653.126,537.33 590.5,536.5C 587.516,537.965 584.849,537.631 582.5,535.5 Z"/></g>
<g><path style="opacity:1" fill="#edfefe" d="M 787.5,567.5 C 787.22,571.113 785.22,573.113 781.5,573.5C 557.854,572.855 334.187,572.689 110.5,573C 109.418,571.67 108.751,570.17 108.5,568.5C 108.833,568.5 109.167,568.5 109.5,568.5C 109.833,569.167 110.167,569.833 110.5,570.5C 333.333,571.666 556.333,571.833 779.5,571C 782.237,569.924 784.904,568.757 787.5,567.5 Z"/></g>
</svg>
