<svg width="20" height="18" viewBox="0 0 20 18" fill="none" xmlns="http://www.w3.org/2000/svg">
<path d="M13.3333 12.3333L10 9M10 9L6.66667 12.3333M10 9V16.5M16.9917 14.325C17.8044 13.8819 18.4465 13.1807 18.8166 12.3322C19.1866 11.4836 19.2635 10.536 19.0352 9.63891C18.8068 8.74179 18.2862 7.94626 17.5556 7.37787C16.8249 6.80948 15.9257 6.50061 15 6.5H13.95C13.6978 5.52436 13.2276 4.61861 12.575 3.85082C11.9223 3.08304 11.104 2.47321 10.1818 2.06717C9.25946 1.66113 8.25713 1.46946 7.2501 1.50657C6.24307 1.54367 5.25756 1.80858 4.36765 2.28138C3.47774 2.75419 2.70659 3.42258 2.11219 4.23631C1.51778 5.05005 1.11558 5.98794 0.935818 6.97949C0.756059 7.97104 0.803422 8.99044 1.07435 9.96105C1.34527 10.9317 1.8327 11.8282 2.5 12.5833" stroke="white" stroke-width="1.67" stroke-linecap="round" stroke-linejoin="round"/>
</svg>
